{
    "asset" : {
        "generator" : "Khronos glTF Blender I/O v1.8.19",
        "version" : "2.0"
    },
    "scene" : 0,
    "scenes" : [
        {
            "name" : "Scene",
            "nodes" : [
                0
            ]
        }
    ],
    "nodes" : [
        {
            "mesh" : 0,
            "name" : "\u96d5\u585111"
        }
    ],
    "materials" : [
        {
            "doubleSided" : true,
            "name" : "Mat3d66-1104582-6-1414",
            "pbrMetallicRoughness" : {
                "baseColorFactor" : [
                    0.6549019813537598,
                    0.24313700199127197,
                    0.17647099494934082,
                    1
                ],
                "metallicFactor" : 0,
                "roughnessFactor" : 0.5
            }
        }
    ],
    "meshes" : [
        {
            "name" : "Obj3d66-1104582-421-100",
            "primitives" : [
                {
                    "attributes" : {
                        "POSITION" : 0,
                        "NORMAL" : 1,
                        "TEXCOORD_0" : 2,
                        "TEXCOORD_1" : 3
                    },
                    "indices" : 4,
                    "material" : 0
                }
            ]
        }
    ],
    "accessors" : [
        {
            "bufferView" : 0,
            "componentType" : 5126,
            "count" : 6046,
            "max" : [
                0.06149774044752121,
                0.36931663751602173,
                0.19158411026000977
            ],
            "min" : [
                -0.06149774044752121,
                0,
                -0.19158434867858887
            ],
            "type" : "VEC3"
        },
        {
            "bufferView" : 1,
            "componentType" : 5126,
            "count" : 6046,
            "type" : "VEC3"
        },
        {
            "bufferView" : 2,
            "componentType" : 5126,
            "count" : 6046,
            "type" : "VEC2"
        },
        {
            "bufferView" : 3,
            "componentType" : 5126,
            "count" : 6046,
            "type" : "VEC2"
        },
        {
            "bufferView" : 4,
            "componentType" : 5123,
            "count" : 33138,
            "type" : "SCALAR"
        }
    ],
    "bufferViews" : [
        {
            "buffer" : 0,
            "byteLength" : 72552,
            "byteOffset" : 0
        },
        {
            "buffer" : 0,
            "byteLength" : 72552,
            "byteOffset" : 72552
        },
        {
            "buffer" : 0,
            "byteLength" : 48368,
            "byteOffset" : 145104
        },
        {
            "buffer" : 0,
            "byteLength" : 48368,
            "byteOffset" : 193472
        },
        {
            "buffer" : 0,
            "byteLength" : 66276,
            "byteOffset" : 241840
        }
    ],
    "buffers" : [
        {
            "byteLength" : 308116,
            "uri" : "data:application/octet-stream;base64,"
        }
    ]
}
